<svg width="204" height="50" viewBox="0 0 204 50" fill="none" xmlns="http://www.w3.org/2000/svg">
<path d="M69.7781 37.5567C67.2473 37.5567 65.0102 37.0596 63.0669 36.0653C61.1236 35.0485 59.6209 33.6136 58.5589 31.7607C57.4968 29.9078 56.9658 27.7272 56.9658 25.219C56.9658 22.7108 57.4968 20.5302 58.5589 18.6773C59.6209 16.8018 61.1236 15.3669 63.0669 14.3726C65.0102 13.3558 67.2473 12.8474 69.7781 12.8474C71.4954 12.8474 73.0094 13.0281 74.32 13.3897C75.6532 13.7286 76.8734 14.271 77.9806 15.0166V19.9314C76.9864 19.1179 75.8452 18.5304 74.5572 18.1689C73.2918 17.7847 71.8457 17.5926 70.2187 17.5926C68.7047 17.5926 67.3376 17.909 66.1174 18.5417C64.9198 19.1518 63.9708 20.0331 63.2703 21.1855C62.5698 22.3379 62.2195 23.6824 62.2195 25.219C62.2195 26.7781 62.5359 28.1452 63.1686 29.3203C63.8239 30.4727 64.739 31.3652 65.9141 31.998C67.0891 32.6307 68.4449 32.947 69.9814 32.947C71.3824 32.947 72.6026 32.6984 73.6421 32.2013V27.6255H69.812V23.8293H78.6246V35.2519C76.3876 36.7884 73.4387 37.5567 69.7781 37.5567Z" fill="#DFE3E7"/>
<path d="M79.8144 20.7788H84.763V23.1175C85.4183 22.3266 86.3335 21.7278 87.5085 21.3211C88.6835 20.8917 90.0167 20.6771 91.5081 20.6771V24.575C89.9489 24.575 88.5705 24.8122 87.3729 25.2868C86.1979 25.7613 85.3844 26.4844 84.9325 27.456V37.0483H79.8144V20.7788Z" fill="#DFE3E7"/>
<path d="M101.344 37.5567C98.2254 37.5567 95.7736 36.811 93.9885 35.3196C92.2034 33.8057 91.3108 31.6929 91.3108 28.9813C91.3108 26.2923 92.1017 24.1682 93.6835 22.6091C95.2878 21.0499 97.5701 20.2703 100.53 20.2703C102.474 20.2703 104.123 20.6319 105.479 21.355C106.835 22.0781 107.863 23.0836 108.563 24.3716C109.264 25.637 109.614 27.0719 109.614 28.6763V30.7438H96.1917C96.5532 32.8227 98.4965 33.8622 102.022 33.8622C103.061 33.8622 104.134 33.7718 105.242 33.591C106.349 33.4102 107.309 33.1617 108.123 32.8453V36.4382C107.332 36.7771 106.315 37.0483 105.072 37.2517C103.829 37.455 102.586 37.5567 101.344 37.5567ZM104.767 27.4222C104.699 26.3375 104.293 25.5014 103.547 24.9139C102.801 24.3038 101.773 23.9988 100.462 23.9988C99.1744 23.9988 98.1576 24.3038 97.4119 24.9139C96.6662 25.524 96.2595 26.3601 96.1917 27.4222H104.767Z" fill="#DFE3E7"/>
<path d="M120.105 37.5567C116.987 37.5567 114.535 36.811 112.75 35.3196C110.965 33.8057 110.072 31.6929 110.072 28.9813C110.072 26.2923 110.863 24.1682 112.445 22.6091C114.049 21.0499 116.331 20.2703 119.292 20.2703C121.235 20.2703 122.884 20.6319 124.24 21.355C125.596 22.0781 126.624 23.0836 127.325 24.3716C128.025 25.637 128.375 27.0719 128.375 28.6763V30.7438H114.953C115.315 32.8227 117.258 33.8622 120.783 33.8622C121.822 33.8622 122.896 33.7718 124.003 33.591C125.11 33.4102 126.07 33.1617 126.884 32.8453V36.4382C126.093 36.7771 125.076 37.0483 123.833 37.2517C122.591 37.455 121.348 37.5567 120.105 37.5567ZM123.528 27.4222C123.461 26.3375 123.054 25.5014 122.308 24.9139C121.562 24.3038 120.534 23.9988 119.224 23.9988C117.936 23.9988 116.919 24.3038 116.173 24.9139C115.428 25.524 115.021 26.3601 114.953 27.4222H123.528Z" fill="#DFE3E7"/>
<path d="M129.511 20.7788H134.46V22.7786C135.206 21.9425 136.087 21.3211 137.104 20.9143C138.143 20.485 139.228 20.2703 140.358 20.2703C142.572 20.2703 144.222 20.8691 145.306 22.0668C146.414 23.2418 146.967 24.8348 146.967 26.8459V37.0483H141.849V27.4222C141.849 25.3207 140.877 24.2699 138.934 24.2699C138.075 24.2699 137.273 24.4846 136.528 24.9139C135.782 25.3207 135.149 25.9308 134.629 26.7443V37.0483H129.511V20.7788Z" fill="#DFE3E7"/>
<path d="M151.483 18.2705C150.692 18.2705 150.026 18.0107 149.483 17.491C148.941 16.9712 148.67 16.3159 148.67 15.5251C148.67 14.7568 148.941 14.1128 149.483 13.5931C150.026 13.0507 150.692 12.7796 151.483 12.7796C152.274 12.7796 152.941 13.0507 153.483 13.5931C154.025 14.1128 154.296 14.7568 154.296 15.5251C154.296 16.3159 154.025 16.9712 153.483 17.491C152.941 18.0107 152.274 18.2705 151.483 18.2705ZM148.907 20.7788H154.059V37.0483H148.907V20.7788Z" fill="#DFE3E7"/>
<path d="M162.788 37.5567C161.568 37.5567 160.257 37.4211 158.856 37.15C157.478 36.9014 156.393 36.5399 155.602 36.0653V32.0657C156.506 32.6081 157.591 33.0487 158.856 33.3876C160.122 33.7266 161.297 33.8961 162.381 33.8961C163.308 33.8961 163.986 33.817 164.415 33.6588C164.844 33.5006 165.059 33.2069 165.059 32.7775C165.059 32.4386 164.935 32.1674 164.686 31.9641C164.438 31.7381 164.054 31.546 163.534 31.3878C163.037 31.2071 162.201 30.9472 161.026 30.6083C159.647 30.2015 158.563 29.7948 157.772 29.388C157.003 28.9587 156.416 28.4277 156.009 27.795C155.625 27.1623 155.433 26.3488 155.433 25.3546C155.433 23.6598 156.1 22.3944 157.433 21.5583C158.789 20.6997 160.619 20.2703 162.924 20.2703C164.054 20.2703 165.217 20.3946 166.415 20.6432C167.635 20.8691 168.573 21.1742 169.228 21.5583V25.4562C168.573 25.0269 167.714 24.6767 166.652 24.4055C165.613 24.1344 164.596 23.9988 163.602 23.9988C162.675 23.9988 161.952 24.0892 161.432 24.2699C160.935 24.4507 160.687 24.7897 160.687 25.2868C160.687 25.7161 160.924 26.0438 161.398 26.2697C161.896 26.4957 162.811 26.7781 164.144 27.1171L164.822 27.2866C166.245 27.6707 167.353 28.1 168.144 28.5746C168.934 29.0265 169.488 29.5801 169.804 30.2354C170.143 30.8681 170.313 31.6703 170.313 32.642C170.313 34.1333 169.669 35.3309 168.381 36.2348C167.093 37.1161 165.229 37.5567 162.788 37.5567Z" fill="#DFE3E7"/>
<path d="M171.496 12H176.614V22.643C177.382 21.8521 178.252 21.2646 179.224 20.8804C180.196 20.4737 181.235 20.2703 182.342 20.2703C184.557 20.2703 186.206 20.8691 187.291 22.0668C188.398 23.2418 188.952 24.8348 188.952 26.8459V37.0483H183.834V27.4222C183.834 25.3207 182.862 24.2699 180.919 24.2699C180.06 24.2699 179.258 24.4846 178.512 24.9139C177.766 25.3207 177.134 25.9308 176.614 26.7443V37.0483H171.496V12Z" fill="#DFE3E7"/>
<path d="M13.5566 24.0254C22.05 23.4529 29.4521 29.8119 30.1416 38.3232C30.213 39.205 30.2096 40.0756 30.1367 40.9287C21.6434 41.5012 14.2412 35.1421 13.5517 26.6309C13.4803 25.7491 13.4837 24.8785 13.5566 24.0254ZM47.3242 24.041C48.206 23.9696 49.0765 23.973 49.9297 24.0459C50.5021 32.5392 44.1431 39.9414 35.6318 40.6309C34.75 40.7023 33.8795 40.6989 33.0263 40.626C32.4539 32.1327 38.8129 24.7305 47.3242 24.041ZM31.6904 9C35.9959 9.00005 39.4863 12.4904 39.4863 16.7959C39.4863 21.1013 35.9958 24.5917 31.6904 24.5918C27.3849 24.5918 23.8946 21.1014 23.8945 16.7959C23.8945 12.4904 27.3849 9 31.6904 9Z" fill="#DFE3E7"/>
</svg>
